<svg width="21" height="21" viewBox="0 0 21 21" fill="none" xmlns="http://www.w3.org/2000/svg">
<path d="M6.15913 17.5C6.03488 17.5 5.93075 17.458 5.84675 17.374C5.76275 17.29 5.72133 17.1862 5.7225 17.0625V15.4035C5.43725 15.2798 5.1415 15.017 4.83525 14.6151C4.529 14.2132 4.37558 13.75 4.375 13.2256V5.25C4.375 4.34233 4.86617 3.67792 5.8485 3.25675C6.832 2.83558 8.3825 2.625 10.5 2.625C12.6951 2.625 14.2648 2.82742 15.2092 3.23225C16.1537 3.63708 16.6256 4.30967 16.625 5.25V13.2265C16.625 13.7503 16.4719 14.2132 16.1656 14.6151C15.8594 15.0176 15.5636 15.2801 15.2784 15.4026V17.0625C15.2784 17.1868 15.2367 17.2906 15.1533 17.374C15.0698 17.4574 14.9654 17.4994 14.84 17.5H14.6388C14.5145 17.5 14.4104 17.458 14.3264 17.374C14.2424 17.29 14.2007 17.1862 14.2013 17.0625V15.75H6.79787V17.0625C6.79787 17.1868 6.75588 17.2906 6.67188 17.374C6.58787 17.4574 6.48433 17.4994 6.36125 17.5H6.15913ZM10.5105 4.84663H15.6791H5.341H10.5105ZM14 10.5H5.25H15.75H14ZM5.25 9.625H15.75V5.72163H5.25V9.625ZM7.44187 13.664C7.71371 13.664 7.94354 13.5686 8.13138 13.3779C8.31979 13.1871 8.414 12.9558 8.414 12.684C8.414 12.4116 8.31862 12.1812 8.12787 11.9928C7.93712 11.8055 7.70583 11.7119 7.434 11.7119C7.16158 11.7119 6.93117 11.807 6.74275 11.9971C6.55492 12.1879 6.461 12.4192 6.461 12.691C6.461 12.9634 6.55638 13.1938 6.74712 13.3822C6.93788 13.5701 7.16917 13.664 7.441 13.664M13.566 13.664C13.8384 13.664 14.0688 13.5686 14.2573 13.3779C14.4445 13.1871 14.5381 12.9558 14.5381 12.684C14.5381 12.4116 14.443 12.1812 14.2529 11.9928C14.0621 11.8055 13.8305 11.7119 13.5581 11.7119C13.2863 11.7119 13.0565 11.807 12.8686 11.9971C12.6802 12.1879 12.586 12.4192 12.586 12.691C12.586 12.9634 12.6814 13.1938 12.8721 13.3822C13.0629 13.5701 13.2942 13.664 13.566 13.664ZM5.341 4.84663H15.6791C15.5275 4.39629 15.0599 4.05942 14.2765 3.836C13.4931 3.612 12.2378 3.5 10.5105 3.5C8.79258 3.5 7.54192 3.61375 6.7585 3.84125C5.97508 4.06817 5.50258 4.40329 5.341 4.84663ZM7 14.875H14C14.4812 14.875 14.8934 14.7038 15.2364 14.3614C15.5794 14.019 15.7506 13.6068 15.75 13.125V10.5H5.25V13.125C5.25 13.6062 5.4215 14.0184 5.7645 14.3614C6.1075 14.7044 6.51933 14.8756 7 14.875Z" fill="#807E7E"/>
</svg>
