<svg width="384" height="384" viewBox="0 0 384 384" fill="none" xmlns="http://www.w3.org/2000/svg">
<path d="M334.56 383.93H330.82C329.41 383.18 327.88 383.56 326.41 383.56C227.55 383.54 128.69 383.54 29.83 383.54C26.52 383.71 24.89 381.7 24.68 378.81C24.14 371.08 24.16 363.32 24.65 355.6C24.88 351.91 27.2 350.12 31.32 349.91C36.05 349.66 40.8 349.83 45.53 349.82C54.51 349.8 63.49 349.85 72.47 349.8C76.68 349.77 77.12 349.35 77.93 345.3C78.03 344.81 78.11 344.32 78.19 343.82C78.99 338.88 78.8 338.62 73.93 338.59C68.57 338.56 63.21 338.59 57.84 338.59C48.49 338.59 39.13 338.57 29.78 338.6C26.89 338.6 24.05 338.32 21.24 337.73C13.47 336.1 8.33998 330.1 7.96998 322.2C7.91998 321.08 7.92998 319.95 7.92998 318.83C7.92998 280.47 8.14998 242.11 7.78998 203.75C7.67998 192.34 14.99 183.98 27.5 184.04C79.13 184.27 130.75 184.14 182.38 184.14C186.793 184.14 189 181.963 189 177.61C189 167.61 188.95 157.62 189.03 147.62C189.06 144.56 188.06 142.47 185.32 140.9C180.09 137.91 176.58 133.29 175.24 127.49C173.03 117.99 172.92 108.64 179.33 100.34C181.04 98.13 183.05 96.24 185.51 94.99C188.24 93.6 189.11 91.49 189.03 88.59C188.92 84.47 189.11 80.34 188.99 76.22C188.39 55.8 196.49 38.93 210.64 24.95C223.76 11.98 239.72 4.04996 257.99 1.05996C261.53 0.479956 265.17 0.819956 268.7 0.0799561H272.44C274.44 0.709956 276.43 0.709956 278.43 0.0799561H282.17C285.46 0.739956 288.87 0.359956 292.13 0.959956C322.2 6.40996 344.89 21.83 357.53 50.4C361.11 58.48 362.44 67.14 362.55 75.97C362.58 78.22 362.73 80.48 362.52 82.71C361.96 88.82 362.78 93.66 368.84 97.53C374.32 101.03 376.62 107.42 376.75 114.18C376.79 116.18 376.7 118.18 376.78 120.18C377.13 128.96 373.37 135.7 366.27 140.49C363.4 142.42 362.47 144.65 362.5 147.95C362.62 163.44 362.57 178.93 362.54 194.42C362.53 202.01 360.27 204.29 352.73 204.32C339.14 204.36 325.55 204.32 311.96 204.34C307.53 204.34 306.06 206.51 307.34 210.79C307.94 212.77 309.48 212.64 310.94 212.66C316.92 212.72 322.91 212.6 328.89 212.71C337.62 212.87 346.03 214.55 353.63 219.03C369.11 228.15 376.37 242.27 376.65 259.79C377.07 285.77 377.13 311.77 376.64 337.74C376.27 357.48 367.38 372.34 349.02 380.91C344.37 383.08 339.4 383.1 334.54 383.94L334.56 383.93Z" fill="black"/>
<path d="M29.28 383.93C29.43 383.69 29.41 383.46 29.23 383.24C31.22 383.22 33.21 383.19 35.2 383.19C132.23 383.19 229.26 383.19 326.29 383.22C327.79 383.22 329.51 382.48 330.82 383.93H29.28Z" fill="#777777"/>
<path d="M278.44 0.0799561C276.44 1.23996 274.45 1.23996 272.45 0.0799561H278.44Z" fill="#888888"/>
<path d="M143.61 325.52C142.16 317.83 140.63 310.15 139.3 302.43C138.08 295.39 137.15 294.47 130.19 294.47C118.22 294.47 106.25 294.45 94.29 294.47C89.17 294.48 87.77 295.78 86.9 300.89C85.62 308.39 84.27 315.87 83.03 323.38C82.7 325.4 82 326.22 79.7 326.21C61.75 326.09 43.8 326.16 25.85 326.13C21.36 326.13 19.81 324.59 19.81 319.99C19.79 280.77 19.78 241.55 19.81 202.33C19.81 198.04 21.29 196.42 25.24 196.42C81.21 196.4 137.19 196.42 193.16 196.42C193.4 196.42 193.65 196.51 193.89 196.55C196.03 197.77 195.8 199.9 195.83 201.86C195.91 208.35 195.86 214.83 195.86 221.32C195.86 253.01 195.86 284.69 195.86 316.38C195.86 317.75 195.88 319.12 195.85 320.5C195.74 325.62 195.56 325.81 190.62 325.81C176.18 325.81 161.73 325.81 147.29 325.8C146.06 325.8 144.8 326.06 143.61 325.51V325.52Z" fill="#EEECEE"/>
<path d="M210.64 372.35C203.94 372.977 200.59 370.22 200.59 364.08C200.59 361.46 200.73 358.82 200.53 356.21C200.28 352.91 198.46 350.91 195.01 350.84C191.52 350.77 188.02 350.7 184.54 350.85C182.37 350.95 181.71 350.15 181.84 348.06C182.05 344.59 180.78 340.1 182.5 337.91C184.34 335.58 189.02 337.35 192.45 337.17C195.56 337.01 198.69 337.23 201.79 337C211.22 336.3 217.01 330.03 217.03 320.52C217.07 291.54 217.04 262.55 217.04 233.57C217.04 231.57 217.13 229.57 217.01 227.58C216.9 225.75 217.31 224.91 219.42 224.95C227.15 225.07 234.88 225.06 242.61 224.95C244.56 224.92 245.08 225.69 245.41 227.47C247.7 239.66 255.98 247.29 268.27 248.52C273.23 249.01 278.24 249 283.21 248.49C294.93 247.29 303.36 239.86 305.61 228.28C306.19 225.32 307.35 224.84 309.93 224.96C319.01 225.38 328.15 224.12 337.18 225.66C352.59 228.3 364.28 241.7 364.4 257.34C364.62 284.95 364.64 312.56 364.4 340.17C364.25 357.77 349.73 372.28 332.09 372.55C313.02 372.84 293.94 372.59 274.86 372.69C272.5 372.7 271.91 371.9 271.94 369.68C272.05 362.31 272.1 354.94 271.92 347.57C271.85 344.76 272.99 344.33 275.43 344.34C293.01 344.42 310.59 344.39 328.17 344.38C334.98 344.38 336.31 343.07 336.31 336.34C336.31 318.23 336.31 300.11 336.31 282C336.31 281.25 336.33 280.5 336.29 279.75C336.06 276.22 333.78 273.91 330.68 274.05C327.7 274.18 325.58 276.4 325.53 279.8C325.44 286.3 325.5 292.79 325.5 299.29C325.5 309.41 325.38 319.53 325.57 329.65C325.63 332.71 324.84 333.62 321.69 333.61C292.02 333.49 262.34 333.49 232.67 333.56C219.3 333.59 209.38 341.53 206.97 354.05C205.74 360.42 207.05 366.43 210.66 372.36L210.64 372.35Z" fill="#08A8F0"/>
<path d="M230.99 177.11C235.75 177.11 239.46 177.15 243.18 177.1C247.2 177.04 249.46 175.13 249.56 171.83C249.66 168.4 247.34 166.29 243.13 166.23C237.77 166.15 232.4 166.12 227.05 166.25C225.11 166.3 224.16 165.61 223.47 163.83C221.06 157.61 219.46 151.2 219.41 144.53C219.3 129.29 219.36 114.04 219.34 98.8C219.34 97.26 219.11 96.04 221.49 95.96C244.93 95.2 264.28 84.81 281.58 69.87C283.89 67.88 284.78 68.16 286.61 70.27C298.24 83.7 312.32 93.79 328.83 100.33C331.28 101.3 331.88 102.49 331.86 104.94C331.74 117.18 331.86 129.43 331.79 141.67C331.62 170.91 312.64 193.8 283.79 198.25C262.84 201.49 245.47 193.95 231 177.11H230.99Z" fill="#F6C0A5"/>
<path d="M350.32 78.6001C350.32 83.4201 350.22 86.8001 350.36 90.1701C350.45 92.3401 349.52 92.7801 347.52 92.9801C340.06 93.7201 333.56 90.8101 327.17 87.7401C312.55 80.7101 300.26 70.7201 290.43 57.7501C286.64 52.7601 284.03 52.5801 279.5 56.9801C266.5 69.6001 251.79 79.2901 233.91 83.5501C228.01 84.9601 222.07 84.9501 216.09 84.7801C210.33 84.6201 209.4 85.1901 208.29 90.9101C207.68 94.0601 205.5 92.6501 203.93 92.8601C202.47 93.0501 200.71 93.0901 200.7 90.8501C200.64 78.5201 199.95 66.1501 204.91 54.3401C210.76 40.4101 220.61 30.2001 233.39 22.6401C247.62 14.2201 263.17 10.5201 279.54 11.5001C303.76 12.9501 324.52 21.9401 339.35 42.0301C347.65 53.2701 351.31 66.0401 350.32 78.6101V78.6001Z" fill="#533F5B"/>
<path d="M112.77 350.81C106.05 350.81 99.32 350.72 92.6 350.86C90.14 350.91 89.16 350.71 89.72 347.7C92.22 334.48 94.44 321.21 96.69 307.95C97.01 306.06 97.66 305.23 99.78 305.26C108.62 305.39 117.46 305.34 126.3 305.29C127.87 305.29 128.71 305.54 129.03 307.37C131.36 321 133.78 334.61 136.26 348.21C136.69 350.59 135.67 350.87 133.68 350.85C126.71 350.76 119.73 350.82 112.76 350.82L112.77 350.81Z" fill="#CBD0D8"/>
<path d="M112.73 372.63C88.44 372.63 64.15 372.58 39.86 372.7C36.97 372.71 36.05 372.05 36.13 369.03C36.33 361.63 36.17 361.63 43.58 361.63C90.91 361.63 138.25 361.67 185.58 361.55C188.91 361.55 189.77 362.38 189.65 365.66C189.39 372.63 189.58 372.64 182.61 372.64H112.73V372.63Z" fill="#EDEBED"/>
<path d="M143.61 325.52C159.31 325.5 175.01 325.39 190.71 325.52C193.81 325.54 194.7 324.67 194.7 321.54C194.6 281.21 194.63 240.88 194.64 200.55C194.64 199.17 194.68 197.8 193.89 196.57C196.38 196.52 198.87 196.4 201.35 196.45C204.35 196.52 205.87 198.19 205.98 201.17C206.01 202.04 206 202.92 206 203.79C206 242.13 206 280.46 206 318.8C206 325.14 204.99 326.15 198.65 326.15C181.58 326.15 164.5 326.18 147.43 326.13C146.17 326.13 144.7 326.83 143.61 325.52Z" fill="#E4E0E4"/>
<path d="M244.84 372.63C240.48 372.63 236.11 372.7 231.75 372.61C223.67 372.45 217.64 366.53 217.51 358.75C217.38 351.12 223.02 344.76 230.9 344.48C240.24 344.15 249.6 344.41 258.96 344.36C260.51 344.36 261.2 344.79 261.19 346.48C261.13 354.48 261.11 362.47 261.2 370.47C261.22 372.46 260.3 372.68 258.69 372.66C254.08 372.59 249.46 372.64 244.85 372.63H244.84Z" fill="#F6C0A5"/>
<path d="M295.02 224.38C294.59 231.62 289.46 237.17 282.38 237.62C277.92 237.9 273.43 237.89 268.97 237.63C261.82 237.23 256.19 231.34 256 224.18C255.87 219.21 256.04 214.23 256.08 209.25C257.56 208.28 258.97 208.99 260.32 209.52C270.13 213.37 280.28 214.13 290.65 212.96C294.68 212.51 295.28 213.02 295.23 216.97C295.2 219.44 295.53 221.93 295.01 224.38H295.02Z" fill="#F6C0A5"/>
<path d="M321.86 192.06C325.02 188.13 327.96 184.8 330.53 181.21C338.04 170.71 341.99 158.87 342.65 146.03C342.84 142.36 345.1 143.47 346.99 143.28C349.16 143.06 350.4 143.48 350.37 146.21C350.25 160.56 350.31 174.91 350.31 189.27C350.31 190.67 350.44 192.09 348.34 192.08C339.68 192.05 331.02 192.07 321.85 192.07L321.86 192.06Z" fill="#533F5B"/>
<path d="M342.79 117.88C342.79 114.01 342.9 110.14 342.75 106.28C342.67 104.12 343.44 103.43 345.53 103.55C348.26 103.7 351.01 103.51 353.74 103.61C359.59 103.83 363.8 107.51 364.8 113.32C365.31 116.28 365.28 119.3 364.84 122.26C363.89 128.62 359.83 132.12 353.35 132.19C350.01 132.22 345.7 133.27 343.57 131.62C341.28 129.84 343.04 125.32 342.8 122C342.7 120.64 342.78 119.26 342.78 117.89L342.79 117.88Z" fill="#6A6C8E"/>
<path d="M208.29 117.99C208.29 121.73 208.19 125.48 208.33 129.21C208.41 131.42 207.77 132.4 205.41 132.26C202.56 132.09 199.68 132.3 196.83 132.17C190.94 131.9 186.61 127.5 186.36 121.61C186.28 119.62 186.31 117.62 186.34 115.62C186.42 108.21 190.83 103.73 198.15 103.59C204.923 103.463 208.31 106.763 208.31 113.49C208.31 114.99 208.31 116.48 208.31 117.98L208.29 117.99Z" fill="#6A6D8E"/>
<path d="M157.97 337.13C161.45 337.13 164.93 337.25 168.41 337.09C170.43 337 170.97 337.73 170.87 339.64C170.67 343.22 171.96 347.8 170.2 350.13C168.52 352.35 163.7 350.68 160.26 350.8C156.78 350.92 153.3 350.78 149.82 350.85C148.32 350.88 147.62 350.46 147.41 348.83C147.01 345.63 146.46 342.43 145.75 339.28C145.35 337.51 145.92 337.09 147.53 337.12C151.01 337.18 154.49 337.14 157.97 337.14V337.13Z" fill="#FDFDFD"/>
<path d="M231.31 203.23C235.16 203.23 239.01 203.3 242.86 203.2C244.47 203.16 244.89 203.67 244.98 205.29C245.47 214.01 245.53 214.01 236.79 214.01C231.08 214.01 225.36 213.91 219.65 214.06C217.51 214.12 217 213.44 216.98 211.36C216.89 203.23 216.81 203.24 224.97 203.24C227.08 203.24 229.19 203.24 231.3 203.24L231.31 203.23Z" fill="#FEFEFE"/>
<path d="M229.72 192.06C224.59 192.06 220.04 192.07 215.49 192.04C215.03 192.04 214.4 191.91 214.12 191.59C210.82 187.91 206.79 185.7 201.83 185.24C201.11 185.17 200.77 184.67 200.72 183.97C200.69 183.47 200.66 182.97 200.67 182.48C200.73 180.12 199.93 177.02 201.12 175.6C202.38 174.09 205 176.61 207.15 176.79C207.89 176.85 208.67 177.12 209.37 176.98C215.77 175.72 219.78 178.59 222.88 184.01C224.49 186.83 227.12 189.06 229.72 192.05V192.06Z" fill="#523F5A"/>
<path d="M200.67 150.94C200.67 149.82 200.83 148.66 200.64 147.57C199.97 143.69 201.87 143 205.26 143.17C207.48 143.28 208.55 143.98 208.6 146.09C208.75 152.38 210.11 158.44 212.02 164.39C212.71 166.56 211.71 166.32 210.2 166.09C204.39 165.2 200.87 161.33 200.69 155.43C200.64 153.93 200.69 152.43 200.69 150.93L200.67 150.94Z" fill="#523E5A"/>
<path d="M295.02 224.38C294.96 221.64 294.79 218.9 294.86 216.17C294.91 214.08 293.89 213.48 292.1 213.79C279.62 215.99 267.69 213.91 256.08 209.25C255.55 207.03 256.54 207.16 258.24 207.61C266.95 209.92 275.79 210.68 284.74 209.26C287.55 208.81 290.34 208.24 293.1 207.59C294.33 207.3 295.33 206.96 295.28 208.8C295.15 214 295.76 219.2 295.01 224.39L295.02 224.38Z" fill="#F5A476"/>
<path d="M107.36 168.9C93.73 168.79 83.46 165.53 73.99 159.99C52.24 147.28 34.87 130.02 22.31 108.14C15.26 95.85 11.71 82.62 14.29 68.28C16.4 56.53 22.48 46.94 30.92 38.83C35.52 34.41 42.71 35.19 46.29 40.49C52.65 49.88 58.78 59.42 64.84 69.01C67.58 73.35 66.94 77.94 63.42 81.74C60.88 84.48 58.21 87.12 55.5 89.7C53.35 91.76 53.07 93.84 54.74 96.34C63.1 108.84 73.51 119.27 86.01 127.62C88.36 129.19 90.38 128.96 92.33 126.94C94.85 124.34 97.39 121.77 100.01 119.26C104.23 115.21 108.72 114.6 113.58 117.69C122.82 123.57 132.02 129.53 141.13 135.63C146.85 139.46 147.87 146.69 143.2 151.5C132.73 162.28 120.28 168.94 107.37 168.88L107.36 168.9Z" fill="black"/>
<path d="M150.6 99.5C150.6 101.12 150.68 102.75 150.58 104.36C150.35 108.36 148.35 110.5 145.02 110.44C141.55 110.37 139.6 107.98 139.83 103.73C140.14 97.82 139.57 92.02 138.04 86.31C130.8 59.42 106.44 41.4 78.63 42.33C74.36 42.47 71.97 40.67 71.84 37.2C71.71 33.71 73.9 31.72 78.15 31.48C116.52 29.32 150.39 61.05 150.61 99.5H150.6Z" fill="black"/>
<path d="M80.1 66.87C79.75 66.91 78.76 67.07 77.77 67.1C74.39 67.2 72.09 65.28 71.85 62.22C71.6 59.11 73.47 56.78 76.77 56.31C84.09 55.26 91.14 56.34 97.95 59.2C116.09 66.82 128.12 85.96 126.02 103.91C125.47 108.59 123.57 110.66 120.03 110.42C116.5 110.19 114.91 107.77 115.22 103.07C116.47 83.78 99.69 66.15 80.1 66.87Z" fill="black"/>
<path d="M278.33 179.26C268.75 179.31 259.77 173.35 256.31 164.68C254.88 161.09 255.81 158.12 258.78 156.74C261.77 155.36 264.61 156.53 266.29 160.15C268.67 165.28 272.51 168.19 278.21 168.19C283.93 168.19 287.71 165.17 290.12 160.1C291.84 156.49 294.62 155.35 297.63 156.77C300.56 158.15 301.47 161.17 300.02 164.73C296.55 173.29 287.7 179.21 278.33 179.26Z" fill="black"/>
<path d="M249.92 125.13C249.92 131.03 248.31 133.59 244.53 133.67C240.6 133.76 238.87 131.12 238.87 125.03C238.87 124.16 238.84 123.29 238.87 122.42C239.05 118.59 241.18 116.24 244.43 116.27C247.65 116.3 249.74 118.67 249.9 122.52C249.94 123.39 249.9 124.26 249.9 125.13H249.92Z" fill="#010101"/>
<path d="M312.17 125.1C312.17 126.22 312.25 127.34 312.17 128.45C311.92 131.64 310.19 133.53 306.97 133.63C303.76 133.73 301.77 132.02 301.49 128.8C301.28 126.33 301.3 123.83 301.47 121.36C301.69 118.15 303.62 116.32 306.8 116.34C309.97 116.35 311.82 118.19 312.15 121.38C312.27 122.61 312.17 123.86 312.18 125.1H312.17Z" fill="#010000"/>
<path d="M37.95 47.5799C43.41 55.9899 48.66 64.1699 54.03 72.2799C55.05 73.8199 55.07 74.8199 53.69 76.0999C51.31 78.2999 49.02 80.6099 46.83 82.9999C41.87 88.4199 41.19 95.4699 45.18 101.62C54.48 115.96 66.31 127.81 80.6 137.13C86.68 141.1 93.84 140.41 99.21 135.49C101.6 133.3 103.89 130.99 106.09 128.61C107.36 127.23 108.35 127.22 109.9 128.25C118 133.63 126.17 138.89 134.68 144.43C127.8 151.5 119.93 156.23 110.22 157.54C99.24 159.03 89.12 156.06 79.81 150.62C58.24 138 40.95 120.99 29.76 98.4499C21.43 81.6899 22.27 65.4099 34.8 50.6199C35.44 49.8599 36.13 49.1299 36.82 48.4099C37.07 48.1499 37.41 47.9699 37.96 47.5699L37.95 47.5799Z" fill="#08A8F0"/>
</svg>
