<svg width="16" height="16" viewBox="0 0 16 16" fill="none" xmlns="http://www.w3.org/2000/svg">
<g clip-path="url(#clip0_4017_351)">
<path d="M8 4V12M10 6.33333C10 5.41333 9.10467 4.66667 8 4.66667C6.89533 4.66667 6 5.41333 6 6.33333C6 7.25333 6.89533 8 8 8C9.10467 8 10 8.74667 10 9.66667C10 10.5867 9.10467 11.3333 8 11.3333C6.89533 11.3333 6 10.5867 6 9.66667" stroke="#807E7E" stroke-linecap="round"/>
<path d="M4.66659 2.22551C5.67955 1.63932 6.82957 1.33158 7.99992 1.33351C11.6819 1.33351 14.6666 4.31817 14.6666 8.00017C14.6666 11.6822 11.6819 14.6668 7.99992 14.6668C4.31792 14.6668 1.33325 11.6822 1.33325 8.00017C1.33325 6.78617 1.65792 5.64684 2.22525 4.66684" stroke="#807E7E" stroke-linecap="round"/>
</g>
<defs>
<clipPath id="clip0_4017_351">
<rect width="16" height="16" fill="white"/>
</clipPath>
</defs>
</svg>
