<svg width="131" height="131" viewBox="0 0 131 131" fill="none" xmlns="http://www.w3.org/2000/svg">
    <path
        d="M70.8003 103.258C70.8003 85.4 85.3137 70.8867 103.172 70.8867C109.107 70.8867 114.61 72.5053 119.358 75.2569V33.1197C119.358 30.2578 118.221 27.5132 116.197 25.4896C114.174 23.466 111.429 22.3291 108.567 22.3291H22.2427C16.254 22.3291 11.4521 27.1309 11.4521 33.1197V97.8631C11.4521 100.725 12.589 103.47 14.6126 105.493C16.6363 107.517 19.3809 108.654 22.2427 108.654H71.2859C71.0161 106.873 70.8003 105.093 70.8003 103.258ZM22.2427 43.9103V33.1197L65.405 60.0961L108.567 33.1197V43.9103L65.405 70.8867L22.2427 43.9103ZM96.428 120.308L81.5909 104.122L87.8494 97.8631L96.428 106.442L115.797 87.0726L122.056 94.6799L96.428 120.308Z"
        fill="#1C6AE4" />
</svg>