<svg width="48" height="48" viewBox="0 0 20 20" xmlns="http://www.w3.org/2000/svg">
    <rect x="0" y="0" width="20" height="20" rx="8" fill="none" /><svg xmlns="http://www.w3.org/2000/svg"
        viewBox="0 0 20 20" fill="#1C6AE4" x="0" y="0" width="20" height="20">
        <path fill="#1C6AE4"
            d="M20 12v5H0v-5a2 2 0 1 0 0-4V3h20v5a2 2 0 1 0 0 4zM3 5v10h14V5H3zm7 7.08l-2.92 2.04L8.1 10.7L5.27 8.56l3.56-.08L10 5.12l1.17 3.36l3.56.08l-2.84 2.15l1.03 3.4L10 12.09z" />
    </svg>
</svg>